<?xml version="1.0" encoding="utf-8"?>
<!-- Generator: Adobe Illustrator 24.0.2, SVG Export Plug-In . SVG Version: 6.00 Build 0)  -->
<svg version="1.1" id="Слой_1" xmlns="http://www.w3.org/2000/svg" xmlns:xlink="http://www.w3.org/1999/xlink" x="0px" y="0px"
	 viewBox="0 0 512 512" style="enable-background:new 0 0 512 512;" xml:space="preserve">
<style type="text/css">
	.st0{fill:#FFDAB2;}
</style>
<g id="Donut-2">
	<path class="st0" d="M256,96C123.7,96,16,167.8,16,256s107.7,160,240,160s240-71.8,240-160S388.3,96,256,96z M256,112
		c123.5,0,224,64.6,224,144c0,0.9-0.1,1.7-0.1,2.6c-12.1,5.1-22.6,13.5-30.1,24.3c-9.4,11.3-17.6,21.1-33.8,21.1
		s-24.5-9.8-33.9-21.1C371.6,270.3,359.7,256,336,256s-35.6,14.3-46.1,26.9c-9.4,11.3-17.6,21.1-33.9,21.1s-24.4-9.8-33.8-21.1
		C211.7,270.3,199.8,256,176,256s-35.6,14.3-46.1,26.9C120.5,294.2,112.3,304,96,304s-24.3-9.8-33.7-21.1
		c-7.5-10.8-17.9-19.2-30.1-24.3c0-0.9-0.1-1.7-0.1-2.6C32,176.6,132.5,112,256,112L256,112z M256,400
		c-112.1,0-205.2-53.2-221.5-122.4c5.8,4.5,11,9.7,15.4,15.6c10.5,12.6,22.4,26.8,46,26.8s35.6-14.3,46.2-26.9
		c9.4-11.3,17.6-21.1,33.8-21.1s24.4,9.8,33.9,21.1c10.5,12.6,22.4,26.9,46.1,26.9s35.6-14.3,46.2-26.9
		c9.4-11.3,17.6-21.1,33.8-21.1s24.4,9.8,33.9,21.1c10.5,12.6,22.4,26.9,46.2,26.9s35.6-14.3,46.1-26.9c4.4-5.8,9.6-11.1,15.4-15.5
		C461.2,346.8,368.1,400,256,400L256,400z"/>
	<path class="st0" d="M158.6,144h32v16h-32V144z"/>
	<path class="st0" d="M72,192h32v16H72V192z"/>
	<path class="st0" d="M99.9,240h32v16h-32C99.9,256,99.9,240,99.9,240z"/>
	<path class="st0" d="M304,128h32v16h-32V128z"/>
	<path class="st0" d="M197.8,208h32v16h-32V208z"/>
	<path class="st0" d="M269.3,184h32v16h-32V184z"/>
	<path class="st0" d="M376,176h32v16h-32V176z"/>
	<path class="st0" d="M360,232h32v16h-32V232z"/>
	<path class="st0" d="M240,264h32v16h-32V264z"/>
</g>
</svg>
