<?xml version="1.0" encoding="utf-8"?>
<!-- Generator: Adobe Illustrator 24.0.2, SVG Export Plug-In . SVG Version: 6.00 Build 0)  -->
<svg version="1.1" id="Capa_1" xmlns="http://www.w3.org/2000/svg" xmlns:xlink="http://www.w3.org/1999/xlink" x="0px" y="0px"
	 viewBox="0 0 512 512" style="enable-background:new 0 0 512 512;" xml:space="preserve">
<style type="text/css">
	.st0{fill:#FFDAB2;}
</style>
<g>
	<g>
		<path class="st0" d="M466.7,267c-20.2-20.2-52-21.9-74.2-5.2c-20.1-15.1-48.1-15.1-68.2,0c-20.1-15.1-48.1-15.1-68.2,0
			c-20.1-15.1-48.1-15.1-68.2,0c-20.1-15.1-48.1-15.1-68.2,0c-22.2-16.7-54-15-74.2,5.2c-2.1,2.1-3,5.2-2.3,8.1l51.2,204.7
			c0.9,3.8,4.4,6.5,8.3,6.5h307c3.9,0,7.3-2.7,8.3-6.5l51.2-204.7C469.7,272.2,468.8,269.1,466.7,267z M402.8,469.2H109.2L60.9,276
			c15.6-12.3,38.3-11.2,52.7,3.1c3.3,3.3,8.7,3.3,12,0c15.5-15.5,40.7-15.5,56.2,0c3.3,3.3,8.7,3.3,12,0c15.5-15.5,40.7-15.5,56.2,0
			c3.3,3.3,8.7,3.3,12,0c15.5-15.5,40.7-15.5,56.2,0c3.3,3.3,8.7,3.3,12.1,0c15.5-15.5,40.7-15.5,56.2,0c3.3,3.3,8.7,3.3,12.1,0
			c14.4-14.3,37.1-15.4,52.7-3.1L402.8,469.2z"/>
	</g>
</g>
<g>
	<g>
		<path class="st0" d="M500.1,197.6c-8.5-10.2-20.4-16.6-33.6-18.1c-1.7-4.1-4.2-10.4-7-17.6C427.2,79.2,349,25.8,260.1,25.8
			c-0.1,0-0.2,0-0.3,0c-87.6,0-167.7,54.8-199.4,136.5l-6.4,17h-0.2c-27-0.6-50.2,19.3-53.5,46.6c-1.2,13.6,2.9,26.9,11.7,37.4
			s21.1,16.9,34.7,18.2c1.6,0.1,3.3,0.2,4.9,0.2l-0.1-17.1c-1,0-2.1,0-3.2-0.1c-9.1-0.8-17.3-5.1-23.1-12.1
			c-5.8-7-8.6-15.8-7.8-24.7c2.2-18.3,17.9-31.7,36.4-31.3h6.3c3.5,0,6.7-2.2,8-5.5l8.5-22.4C105.6,93.2,179.3,42.8,259.9,42.8
			c0.1,0,0.2,0,0.3,0c81.7,0,153.8,49.2,183.4,125.4c5,12.7,9.2,22.8,9.2,22.8c1.3,3.2,4.4,5.3,7.9,5.3c0,0,0,0,0,0
			c1.1-0.1,2.2,0,3.2,0.1c9.1,0.8,17.3,5.1,23.1,12.1c5.8,7,8.6,15.8,7.8,24.7c-2.2,18-17.3,31.3-35.4,31.3c-0.3,0-0.6,0-0.8,0
			l-0.4,17.1c0.4,0,0.8,0,1.2,0c26.7,0,49-19.7,52.3-46.6C513,221.4,508.9,208.1,500.1,197.6z"/>
	</g>
</g>
<g>
	<g>
		<rect x="247.5" y="307.1" class="st0" width="17.1" height="136.4"/>
	</g>
</g>
<g>
	<g>
		
			<rect x="200.6" y="307.1" transform="matrix(0.9981 -6.239696e-02 6.239696e-02 0.9981 -23.0186 13.7807)" class="st0" width="17.1" height="136.7"/>
	</g>
</g>
<g>
	<g>
		
			<rect x="281.1" y="366.9" transform="matrix(0.124 -0.9923 0.9923 0.124 -66.0886 675.9503)" class="st0" width="137.5" height="17.1"/>
	</g>
</g>
<g>
	<g>
		
			<rect x="234.5" y="366.9" transform="matrix(6.250280e-02 -0.998 0.998 6.250280e-02 -90.7379 654.1973)" class="st0" width="136.7" height="17.1"/>
	</g>
</g>
<g>
	<g>
		
			<rect x="106.8" y="306" transform="matrix(0.9829 -0.1843 0.1843 0.9829 -67.209 27.6812)" class="st0" width="17.1" height="138.8"/>
	</g>
</g>
<g>
	<g>
		
			<rect x="153.7" y="306.6" transform="matrix(0.9923 -0.124 0.124 0.9923 -45.2943 23.0073)" class="st0" width="17.1" height="137.5"/>
	</g>
</g>
<g>
	<g>
		
			<rect x="327.3" y="366.8" transform="matrix(0.1846 -0.9828 0.9828 0.1846 -45.4561 695.8939)" class="st0" width="138.8" height="17"/>
	</g>
</g>
</svg>
