<?xml version="1.0" encoding="utf-8"?>
<!-- Generator: Adobe Illustrator 17.1.0, SVG Export Plug-In . SVG Version: 6.00 Build 0)  -->
<!DOCTYPE svg PUBLIC "-//W3C//DTD SVG 1.1//EN" "http://www.w3.org/Graphics/SVG/1.1/DTD/svg11.dtd">
<svg version="1.1" id="Слой_1" xmlns="http://www.w3.org/2000/svg" xmlns:xlink="http://www.w3.org/1999/xlink" x="0px" y="0px"
	 width="107px" height="57px" viewBox="0 0 107 57" enable-background="new 0 0 107 57" xml:space="preserve">
<g>
	<g>
		<linearGradient id="SVGID_1_" gradientUnits="userSpaceOnUse" x1="1.598067e-006" y1="28.2876" x2="65.3078" y2="28.2876">
			<stop  offset="0" style="stop-color:#00CB8C"/>
			<stop  offset="1" style="stop-color:#008E86"/>
		</linearGradient>
		<path fill-rule="evenodd" clip-rule="evenodd" fill="url(#SVGID_1_)" d="M65.308,0L32.637,56.575C12.436,44.923,0,23.338,0,0
			H65.308z"/>
		<path fill="#FEFEFE" d="M49.024,28.185c-0.412,0.206-1.031,0.241-1.546,0.241c-1.855,0-3.71-0.687-4.947-1.65l-1.512,2.509
			c1.374,1.1,3.676,1.89,6.253,1.925L49.024,28.185z M52.322,22.479c-0.859-0.619-2.061-1.1-3.642-1.375
			c-2.199-0.378-4.191-0.516-4.191-2.062c0-1.203,0.893-2.165,3.126-2.165c1.34,0,2.714,0.412,3.745,0.997l1.443-2.372
			c-1.34-0.859-3.229-1.34-5.394-1.34c-3.058,0-5.978,1.615-5.978,4.881c0,3.025,1.993,4.262,5.772,4.812
			c1.924,0.275,3.092,0.756,3.47,1.512L52.322,22.479z M19.857,21.104c-2.199-0.378-4.191-0.516-4.191-2.062
			c0-1.203,0.893-2.165,3.126-2.165c1.649,0,3.401,0.653,4.466,1.409l1.374-2.303c-1.34-1.134-3.504-1.822-6.046-1.822
			c-3.058,0-5.978,1.615-5.978,4.881c0,3.025,1.993,4.262,5.772,4.812c2.611,0.344,3.676,1.134,3.676,2.234
			c0,1.375-1.237,2.337-3.401,2.337c-1.855,0-3.71-0.687-4.947-1.65l-1.512,2.509c1.477,1.169,3.882,1.925,6.527,1.925
			c3.882,0,6.493-1.89,6.493-5.328C25.216,23.338,23.464,21.757,19.857,21.104L19.857,21.104z M33.324,21.929l-4.054-7.046h-3.573
			l6.081,10.105v5.809h3.092v-5.809l6.081-10.105h-3.539L33.324,21.929z"/>
		<path fill="#B1B4B7" d="M61.357,18.286l1.409-2.303c-1.271-1.066-3.229-1.787-5.634-1.787l-1.683,2.887
			c0.309-0.172,0.962-0.206,1.477-0.206C58.574,16.876,60.292,17.529,61.357,18.286L61.357,18.286z M85.577,18.251
			c0-0.344,0.275-0.584,0.584-0.584h7.249v-2.784h-8.314c-1.546,0-2.611,1.237-2.611,2.612v13.302h3.092v-6.909h6.493v-2.784h-6.493
			V18.251z M72.625,14.161c-4.81,0-7.592,2.75-7.592,8.524c0,5.74,3.092,8.524,7.592,8.524c4.535,0,7.592-2.784,7.592-8.524
			C80.218,16.911,77.435,14.161,72.625,14.161L72.625,14.161z M72.625,28.425c-2.714,0-4.466-1.547-4.466-5.74
			s1.855-5.74,4.466-5.74s4.466,1.547,4.466,5.74S75.339,28.425,72.625,28.425L72.625,28.425z M94.784,14.883v2.75h4.569v13.164
			h3.092V17.633h4.569v-2.75H94.784z M57.99,21.104c-1.821-0.309-3.504-0.516-4.054-1.409l-1.615,2.784
			c0.962,0.687,2.37,1.1,4.191,1.375c2.611,0.344,3.642,1.134,3.642,2.234c0,1.375-1.202,2.337-3.367,2.337
			c-1.34,0-2.68-0.344-3.745-0.894l-1.512,2.509c1.409,0.722,3.298,1.169,5.291,1.169c3.882,0,6.493-1.89,6.493-5.328
			C63.315,23.338,61.563,21.757,57.99,21.104L57.99,21.104z"/>
	</g>
</g>
</svg>
