<?xml version="1.0" encoding="utf-8"?>
<!-- Generator: Adobe Illustrator 24.0.2, SVG Export Plug-In . SVG Version: 6.00 Build 0)  -->
<svg version="1.1" id="Слой_1" xmlns="http://www.w3.org/2000/svg" xmlns:xlink="http://www.w3.org/1999/xlink" x="0px" y="0px"
	 viewBox="0 0 512 512" style="enable-background:new 0 0 512 512;" xml:space="preserve">
<style type="text/css">
	.st0{fill:#FFDAB2;}
</style>
<g id="Bread">
	<g>
		<path class="st0" d="M388.6,147.8c-2.1-1-4.6-1-6.7,0c-2.1,1-3.7,2.9-4.4,5.2l-1.4,5.5c-9.9-4-20.1-7.5-30.4-10.4l2-7.3
			c1.1-4.3-1.4-8.6-5.7-9.8c-18.5-4.9-37.5-8.2-56.6-9.8c-3.9-0.3-7.4,2.2-8.4,5.9l-2.5,9.4c-11.3-0.6-22.2-0.7-33-0.2l1.5-5.6
			c1.1-4.4-1.6-8.8-5.9-9.8c-0.8-0.2-1.5-0.3-2.3-0.2c-20.8,1.3-41.5,4.5-61.8,9.6c-2.8,0.7-5,2.9-5.8,5.7l-3.4,13
			c-12.5,3.6-24.7,8.1-36.6,13.4l0.4-1.5c0.2-0.8,0.3-1.5,0.3-2.3c0-4-3-7.4-7-7.9c-1.9-0.2-3.9,0.2-5.5,1.3
			C53.1,183.1,16,234,16,288c0,96.2,108.7,104,240,104s240-7.8,240-104C496,231.4,455.8,179,388.6,147.8z M336.3,183.2l5.2-19.4
			c10.3,2.9,20.4,6.4,30.3,10.5l-4.6,17.3c-1,4.1-3.7,7.6-7.4,9.7c-3.7,2.1-8.1,2.7-12.2,1.6c-4.1-1-7.6-3.7-9.7-7.4
			C335.8,191.7,335.2,187.3,336.3,183.2z M237.1,152.6c11.1-0.6,22.1-0.7,33.2-0.2l-15.4,57.6c-2.3,8.5-11.1,13.6-19.6,11.4
			c-4.1-1-7.6-3.7-9.7-7.4c-2.2-3.7-2.7-8.1-1.6-12.2L237.1,152.6z M120,189.3l1.8-6.7c12-6.1,24.4-11.3,37.2-15.5l-8.2,30.5
			c-2.1,8.5-10.8,13.7-19.3,11.6s-13.7-10.8-11.6-19.3C119.9,189.6,119.9,189.5,120,189.3z M256,376c-145.3,0-224-14-224-88
			c0-43.4,27.8-84.9,75.4-113.5l-2.9,10.6c-4.6,17.1,5.6,34.6,22.6,39.2s34.6-5.6,39.2-22.6l15.2-57c14.2-3.4,28.6-5.8,43.1-7.1
			l-16.2,60c-2.2,8.2-1,16.9,3.2,24.3c8.8,15.3,28.4,20.6,43.8,11.8c7.4-4.3,12.8-11.3,15-19.5l20.4-76.2
			c13.2,1.4,26.3,3.6,39.3,6.7l-9.3,34.5c-4.6,17.1,5.5,34.7,22.6,39.3c17.1,4.6,34.7-5.5,39.3-22.6l7.8-29.1
			C446.7,195.4,480,240.2,480,288C480,362,401.3,376,256,376z"/>
	</g>
</g>
</svg>
