<?xml version="1.0" encoding="utf-8"?>
<!-- Generator: Adobe Illustrator 24.0.2, SVG Export Plug-In . SVG Version: 6.00 Build 0)  -->
<svg version="1.1" id="Capa_1" xmlns="http://www.w3.org/2000/svg" xmlns:xlink="http://www.w3.org/1999/xlink" x="0px" y="0px"
	 viewBox="0 0 512 512" style="enable-background:new 0 0 512 512;" xml:space="preserve">
<style type="text/css">
	.st0{fill:#FFDAB2;}
</style>
<g>
	<g>
		<path class="st0" d="M395.9,9.6C391,3.5,383.6,0,375.8,0H136.2c-7.8,0-15.2,3.5-20.1,9.6c-81.1,102.6-82,240.6-82,246.4
			c0,5.8,0.9,143.8,82,246.4c4.9,6.1,12.3,9.6,20.1,9.6h239.6c7.8,0,15.2-3.5,20.1-9.6c81.1-102.6,82-240.6,82-246.4
			S476.9,112.2,395.9,9.6z M458.4,221.9h-76c-2.6-34.5-7.9-68.7-15.9-102.4h68.9C446.8,152.7,454.5,187,458.4,221.9z M375.8,17.1
			c2.6,0,5,1.1,6.7,3.1c7.8,9.9,14.9,20.2,21.3,31h-58.3c-4.9-12.3-10-23.6-15.4-34.1L375.8,17.1L375.8,17.1z M264.5,17.1h46.1
			c6.1,11.1,11.6,22.5,16.4,34.1h-62.5L264.5,17.1L264.5,17.1z M201.3,17.1h46.1v34.1h-62.5C189.8,39.5,195.2,28.1,201.3,17.1z
			 M129.5,20.2c1.6-2,4.1-3.1,6.7-3.1h45.7c-5.4,10.5-10.5,21.9-15.4,34.1h-58.3C114.6,40.4,121.8,30.1,129.5,20.2z M98.6,68.3h73.7
			l0,0l0,0h167.4l0,0l0,0h73.7c5.8,11.1,11,22.5,15.6,34.1H83C87.6,90.8,92.8,79.4,98.6,68.3z M365.3,221.9H264.5V119.5H349
			C357.1,153.1,362.6,187.4,365.3,221.9z M247.5,119.5v102.4H146.7c2.7-34.5,8.1-68.8,16.3-102.4H247.5z M76.6,119.5h68.9
			c-7.9,33.7-13.3,67.9-15.9,102.4h-76C57.5,187,65.2,152.7,76.6,119.5z M53.6,290.1h76c2.6,34.5,7.9,68.7,15.9,102.4H76.6
			C65.2,359.3,57.5,325,53.6,290.1z M136.2,494.9c-2.6,0-5-1.1-6.7-3.1l0,0c-7.8-9.9-14.9-20.2-21.3-31h58.3
			c4.9,12.3,10,23.6,15.4,34.1L136.2,494.9L136.2,494.9z M247.5,494.9h-46.1c-6.1-11.1-11.6-22.5-16.4-34.1h62.5L247.5,494.9
			L247.5,494.9z M310.7,494.9h-46.1v-34.1h62.5C322.2,472.5,316.8,483.9,310.7,494.9z M382.5,491.8c-1.6,2-4.1,3.1-6.7,3.1h-45.7
			c5.4-10.5,10.5-21.9,15.4-34.1h58.3C397.4,471.6,390.2,481.9,382.5,491.8z M413.4,443.7H98.6c-5.8-11.1-11-22.5-15.6-34.1h73.3
			l0,0l0,0h199.3l0,0l0,0H429C424.4,421.2,419.2,432.6,413.4,443.7z M146.7,290.1h100.7v102.4H163
			C154.9,358.9,149.4,324.6,146.7,290.1z M264.5,392.5V290.1h100.7c-2.7,34.5-8.1,68.8-16.3,102.4H264.5z M435.4,392.5h-68.9
			c7.9-33.7,13.3-67.9,15.9-102.4h76C454.5,325,446.8,359.3,435.4,392.5z M52,273.1c-0.8-10.5-0.8-16.8-0.8-17.1
			c0-0.3,0.1-6.5,0.8-17.1H460c0.8,10.5,0.8,16.8,0.8,17.1c0,0.3-0.1,6.5-0.8,17.1L52,273.1L52,273.1z"/>
	</g>
</g>
</svg>
