<?xml version="1.0" encoding="utf-8"?>
<!-- Generator: Adobe Illustrator 24.0.2, SVG Export Plug-In . SVG Version: 6.00 Build 0)  -->
<svg version="1.1" id="Слой_1" xmlns="http://www.w3.org/2000/svg" xmlns:xlink="http://www.w3.org/1999/xlink" x="0px" y="0px"
	 viewBox="0 0 512 512" style="enable-background:new 0 0 512 512;" xml:space="preserve">
<style type="text/css">
	.st0{fill:#FFDAB2;}
</style>
<g id="Page-1">
	<g id="_x30_33---Cake">
		<path id="Shape" class="st0" d="M102.4,146.5C8.5,160.2,8.5,180.8,8.5,187.7v273.1C8.5,511.4,245.9,512,256,512
			c10.1,0,247.5-0.6,247.5-51.2V187.7c0-6.9,0-27.5-93.9-41.3v-27c0-14.1-11.5-25.6-25.6-25.6c-14.1,0-25.6,11.5-25.6,25.6v21.2
			c-24.7-2.1-50.5-3.4-76.8-3.8V128c0-14.1-11.5-25.6-25.6-25.6s-25.6,11.5-25.6,25.6v8.9c-26.3,0.4-52.1,1.7-76.8,3.8v-21.2
			c0-14.1-11.5-25.6-25.6-25.6s-25.6,11.5-25.6,25.6V146.5z M486.4,366.8c-3.2,12-85.2,34.3-230.4,34.3c-145,0-227-22.2-230.4-34.2
			v-21.6c73.2,40,387.6,40,460.8,0V366.8z M486.4,324.1c-3.3,12-85.2,34.3-230.4,34.3c-145,0-227-22.2-230.4-34.2V265
			c22.5,6.1,31.1-4.9,41.9-8.2c9.3-2.8,12.2,1,17.8,8.8c4.3,7.7,11.5,13.4,20,15.8c10.3,1.3,20.6-2.9,27-11.2
			c9.5-9.2,13.1-12,28.6,5.2c1.1,1.2,2.2,2.5,3.2,3.6c10.8,13.9,30.7,16.5,44.7,5.8c9.6-7.1,15.7-15,23.5-12.4
			c8.5,4.4,13.9,13.2,13.8,22.8c0.8,13.2,0,31.4,10.8,41c3.9,3.4,8.9,5.2,14,5.1c30.4,0,23-44.4,29-54.6c1.7-3.3,4.7-5.7,8.3-6.6
			c8.3-1.6,12.7,6.8,22,12.3c8.3,5.3,18.9,5.1,27-0.4c9.6-6,15.5-17.3,22.8-18.2c11.9-1.3,24.8,22.4,48,19.1
			c25.8-3.7,34.3-32.7,54.6-27.3c1.2,0.3,2.4,0.9,3.5,1.3L486.4,324.1z M486.4,208.7v40.4c-19.2-4.7-31.2,6.2-41,14.9
			c-18.3,16.5-24.1,15.2-39.8,3.3c-42.1-31.9-49.9,20.6-66.4,10.7c-3.2-1.9-6.8-5.6-10.5-8.4c-6.6-5.5-15.3-7.7-23.7-6
			s-15.6,7-19.6,14.6c-7.5,12.8-3.9,45.2-13.5,46.1c-1.2,0.3-2.5,0-3.5-0.9c-5-4.5-4.7-22.4-5.1-29.2c-0.1-16.6-10.1-31.5-25.4-38
			c-30.5-10.2-39,35.1-61.2,11.1c-11-11.7-20.8-24.5-38-20.9c-15.2,3.2-21.6,19.9-29.9,18.3c-7.8-1.6-11.6-18.2-25.8-23.9
			c-6.6-2.4-13.8-2.5-20.5-0.3c-14,4.3-19.3,14.2-36.9,6.5v-38.2C98.8,248.7,413.2,248.7,486.4,208.7L486.4,208.7z M256,494.9
			c-145.2,0-227.2-22.3-230.4-34.1v-72.9c73.2,40,387.6,40,460.8,0v72.7C483.2,472.6,401.2,494.9,256,494.9z M375.5,119.5
			c0-4.7,3.8-8.5,8.5-8.5c4.7,0,8.5,3.8,8.5,8.5v51.2c0,4.7-3.8,8.5-8.5,8.5c-4.7,0-8.5-3.8-8.5-8.5V119.5z M247.5,128
			c0-4.7,3.8-8.5,8.5-8.5c4.7,0,8.5,3.8,8.5,8.5v51.2c0,4.7-3.8,8.5-8.5,8.5c-4.7,0-8.5-3.8-8.5-8.5V128z M230.4,153.9v25.3
			c0,14.1,11.5,25.6,25.6,25.6s25.6-11.5,25.6-25.6v-25.3c26.4,0.5,52.1,1.7,76.8,3.8v12.9c0,14.1,11.5,25.6,25.6,25.6
			c14.1,0,25.6-11.5,25.6-25.6v-6.9c59.5,9,75.9,20.6,76.8,23.9c-4.7,17.3-130.3,39.3-281.8,33.3C92,216.5,28.9,198.2,25.7,187.7
			c1.3-3.7,17.9-15.1,76.7-24v6.9c0,14.1,11.5,25.6,25.6,25.6s25.6-11.5,25.6-25.6v-12.9C178.3,155.7,204,154.4,230.4,153.9z
			 M119.5,119.5c0-4.7,3.8-8.5,8.5-8.5s8.5,3.8,8.5,8.5v51.2c0,4.7-3.8,8.5-8.5,8.5s-8.5-3.8-8.5-8.5V119.5z"/>
		<path id="Shape_1_" class="st0" d="M137.1,85.3c1,0,2.1,0,3.2-0.1c9.3-0.8,17.8-5.4,23.7-12.7c10.4-12.8,14.5-54.9,15.3-63.2
			c0.2-2.8-0.9-5.5-3.1-7.3s-5.1-2.4-7.8-1.6c-7.9,2.2-47.5,14.1-57.9,27c-12.1,15.1-10.1,37.1,4.5,49.8
			C121,82.4,128.9,85.3,137.1,85.3z M123.6,38.1c3.7-4.6,20.3-11.8,37.1-17.5c-2.4,18.2-6.3,36.5-10.1,41.2c-2.9,3.7-7.3,6-11.9,6.5
			c-4.6,0.4-9.3-1.1-12.8-4.1C118.3,57.4,117.3,45.9,123.6,38.1z"/>
		<path id="Shape_2_" class="st0" d="M393.1,85.3c1,0,2.1,0,3.2-0.1c9.3-0.8,17.8-5.4,23.7-12.7c10.4-12.8,14.5-54.9,15.3-63.2
			c0.2-2.8-0.9-5.5-3.1-7.3c-2.2-1.8-5.1-2.4-7.8-1.6c-7.9,2.2-47.5,14.1-57.9,27c-12.1,15.1-10.1,37.1,4.5,49.8
			C377,82.4,384.9,85.3,393.1,85.3L393.1,85.3z M379.6,38.1c3.7-4.6,20.3-11.8,37.1-17.5c-2.4,18.2-6.3,36.5-10.1,41.2
			c-2.9,3.7-7.3,6-11.9,6.5c-4.6,0.4-9.2-1.1-12.8-4.1C374.3,57.4,373.3,45.9,379.6,38.1z"/>
		<path id="Shape_3_" class="st0" d="M265.1,93.9c1,0,2.1,0,3.2-0.1c9.3-0.8,17.8-5.4,23.7-12.7c10.4-12.8,14.5-54.9,15.3-63.2
			c0.2-2.8-0.9-5.5-3.1-7.3s-5.1-2.4-7.8-1.6c-7.9,2.2-47.5,14.1-57.9,27c-12.1,15.1-10.1,37.1,4.5,49.8
			C249,90.9,256.9,93.9,265.1,93.9L265.1,93.9z M251.6,46.6c3.7-4.6,20.3-11.8,37.1-17.5c-2.4,18.2-6.3,36.5-10.1,41.2
			c-2.9,3.7-7.3,6-11.9,6.5c-4.6,0.4-9.3-1-12.8-4.1C246.3,66,245.3,54.5,251.6,46.6z"/>
	</g>
</g>
</svg>
