<?xml version="1.0"?>
<svg xmlns="http://www.w3.org/2000/svg" viewBox="0 0 64 64" width="512" height="512"><g id="Bread"><path d="M48.58,18.48a1.025,1.025,0,0,0-.84,0,1.044,1.044,0,0,0-.55.65l-.18.69a35.368,35.368,0,0,0-3.8-1.3l.25-.91a1.017,1.017,0,0,0-.71-1.23,40.919,40.919,0,0,0-7.07-1.22,1.012,1.012,0,0,0-1.05.74l-.31,1.17c-1.41-.07-2.78-.09-4.13-.03l.19-.7a1.015,1.015,0,0,0-1.03-1.26,41.7,41.7,0,0,0-7.72,1.2,1.013,1.013,0,0,0-.72.71l-.43,1.62a35.557,35.557,0,0,0-4.58,1.67l.05-.19a.925.925,0,0,0,.04-.29.994.994,0,0,0-.87-.99,1.018,1.018,0,0,0-.69.16C6.64,22.89,2,29.25,2,36,2,48.02,15.59,49,32,49s30-.98,30-13C62,28.93,56.98,22.38,48.58,18.48ZM42.04,22.9l.65-2.43a34.488,34.488,0,0,1,3.79,1.31l-.58,2.16a1.927,1.927,0,0,1-.93,1.21,1.974,1.974,0,0,1-1.52.2,1.927,1.927,0,0,1-1.21-.93A1.969,1.969,0,0,1,42.04,22.9Zm-12.4-3.83a41.1,41.1,0,0,1,4.15-.03l-1.93,7.2a2.007,2.007,0,0,1-2.45,1.42,1.927,1.927,0,0,1-1.21-.93,1.969,1.969,0,0,1-.2-1.52ZM15,23.66l.22-.84a33.175,33.175,0,0,1,4.65-1.94l-1.02,3.81A1.993,1.993,0,1,1,15,23.66ZM32,47C13.84,47,4,45.25,4,36c0-5.42,3.48-10.61,9.42-14.19l-.36,1.33a4,4,0,0,0,7.73,2.07l1.9-7.13a38.116,38.116,0,0,1,5.39-.89l-2.02,7.5a4.038,4.038,0,0,0,.4,3.04,4.005,4.005,0,0,0,7.34-.97l2.55-9.53a38.384,38.384,0,0,1,4.91.84L40.1,22.38a4.007,4.007,0,0,0,7.74,2.08l.97-3.64C55.84,24.42,60,30.03,60,36,60,45.25,50.16,47,32,47Z"/></g></svg>
