<?xml version="1.0" encoding="utf-8"?>
<!-- Generator: Adobe Illustrator 24.0.2, SVG Export Plug-In . SVG Version: 6.00 Build 0)  -->
<svg version="1.1" id="Outline" xmlns="http://www.w3.org/2000/svg" xmlns:xlink="http://www.w3.org/1999/xlink" x="0px" y="0px"
	 viewBox="0 0 512 512" style="enable-background:new 0 0 512 512;" xml:space="preserve">
<style type="text/css">
	.st0{fill:#FFDAB2;}
</style>
<path class="st0" d="M471.8,103.7c-15-9.3-33.8-10.2-49.6-2.2c0,0-0.1,0-0.1,0.1l-74.6,39.2c15.9-50.6-12.2-104.5-62.8-120.4
	S180.3,32.5,164.4,83.1c-5.9,18.7-5.9,38.8,0,57.6l-74.6-39.2c0,0-0.1-0.1-0.1-0.1C64.6,88.8,34,98.9,21.3,124.1
	s-2.5,55.7,22.7,68.4l108,60.2V342l-42.5,80.1c0,0.1-0.1,0.1-0.1,0.2c-12.5,25.2-2.2,55.8,23,68.3c25.1,12.5,55.5,2.3,68.1-22.7
	L256,361.3l55.5,106.6c12.7,25.1,43.4,35.1,68.4,22.4c24.9-12.6,35-43,22.6-68c0-0.1-0.1-0.1-0.1-0.2L360,342v-89.3l108-60.2
	c25.1-12.7,35.2-43.3,22.5-68.4C486.3,115.7,479.8,108.6,471.8,103.7L471.8,103.7z M51.6,178.4c-0.1-0.1-0.2-0.1-0.3-0.2
	c-17.2-8.7-24.2-29.6-15.5-46.9c8.6-17.2,29.5-24.2,46.7-15.6l22.9,12l-36.3,60.4L51.6,178.4z M186.3,460.6c0,0,0,0.1-0.1,0.1
	c-8.6,17.3-29.6,24.3-46.8,15.7c-17.3-8.6-24.3-29.6-15.7-46.8l9.6-18l59.9,35.9L186.3,460.6z M388.3,429.5
	c8.5,17.3,1.4,38.2-15.9,46.8c-17.2,8.5-38.1,1.5-46.7-15.6c0,0,0-0.1-0.1-0.1l-6.9-13.2l59.9-35.9L388.3,429.5z M348.1,241
	c-2.5,1.4-4.1,4.1-4.1,7v96c0,1.3,0.3,2.6,0.9,3.7l26.3,49.6l-59.8,35.9l-48.4-92.9c-2-3.9-6.9-5.4-10.8-3.4
	c-1.5,0.8-2.6,1.9-3.4,3.4l-48.4,92.9l-59.8-35.9l26.3-49.6c0.6-1.2,0.9-2.4,0.9-3.8v-96c0-2.9-1.6-5.6-4.1-7l-80.8-45l36.5-60.8
	l58.2,30.6c3.9,2.1,8.7,0.6,10.8-3.4c1.3-2.5,1.2-5.6-0.3-8C164.8,117,176,67.6,213.4,44.1s86.8-12.3,110.3,25.1
	c16.4,26,16.4,59.1,0,85.2c-2.4,3.7-1.2,8.7,2.5,11c2.4,1.5,5.5,1.6,8,0.3l58.2-30.6l36.5,60.8L348.1,241z M460.7,178.2
	c-0.1,0.1-0.2,0.1-0.3,0.2l-17.5,9.8l-36.3-60.4l22.9-12c17.3-8.6,38.2-1.6,46.8,15.7S478,169.6,460.7,178.2L460.7,178.2
	L460.7,178.2z"/>
<path class="st0" d="M256,160c37.3,0,47.2-28.3,47.6-29.5c1.4-4.2-0.9-8.7-5.1-10.1s-8.7,0.9-10.1,5.1c-0.1,0.2-6.5,18.5-32.4,18.5
	c-25.5,0-32.2-17.8-32.4-18.5c-1.4-4.2-5.9-6.5-10.1-5.1s-6.5,5.9-5.1,10.1C208.8,131.7,218.7,160,256,160z"/>
<circle class="st0" cx="224" cy="96" r="8"/>
<circle class="st0" cx="288" cy="96" r="8"/>
<path class="st0" d="M308.7,184.5c-2.1-1.5-4.8-1.9-7.2-1.1L256,198.6l-45.5-15.2c-4.2-1.4-8.7,0.9-10.1,5.1
	c-0.3,0.8-0.4,1.7-0.4,2.5v48c0,4.4,3.6,8,8,8c0.9,0,1.7-0.1,2.5-0.4l45.5-15.2l45.5,15.2c4.2,1.4,8.7-0.9,10.1-5.1
	c0.3-0.8,0.4-1.7,0.4-2.5v-48C312,188.4,310.8,186,308.7,184.5z M248,217.2l-32,10.7v-25.8l32,10.7V217.2z M296,227.9l-32-10.7v-4.5
	l32-10.7V227.9z"/>
<circle class="st0" cx="256" cy="263" r="8"/>
<circle class="st0" cx="256" cy="295" r="8"/>
</svg>
