<?xml version="1.0" encoding="utf-8"?>
<!-- Generator: Adobe Illustrator 24.0.2, SVG Export Plug-In . SVG Version: 6.00 Build 0)  -->
<svg version="1.1" id="Capa_1" xmlns="http://www.w3.org/2000/svg" xmlns:xlink="http://www.w3.org/1999/xlink" x="0px" y="0px"
	 viewBox="0 0 480.1 480.1" style="enable-background:new 0 0 480.1 480.1;" xml:space="preserve">
<style type="text/css">
	.st0{fill:#FFDAB2;}
</style>
<g>
	<g>
		<path class="st0" d="M460,100.5C428.6,38.8,365.2,0,296,0.1c-69.2-0.2-132.6,38.7-163.9,100.4l14.3,7.3
			c42.2-82.6,143.4-115.4,226-73.2s115.4,143.4,73.2,226c-16.1,31.5-41.7,57.1-73.2,73.2l7.3,14.2
			C470.2,301.9,506.2,191.1,460,100.5z"/>
	</g>
</g>
<g>
	<g>
		<path class="st0" d="M313.9,114.3c-5.9-1.5-11.9-2.3-17.9-2.3c-6.1,0-12.1,0.8-18,2.3l4,15.5c30-7.7,60.5,10.4,68.2,40.4
			c2.3,9.1,2.3,18.7,0,27.9l15.5,4C375.6,163.5,352.4,124.3,313.9,114.3z"/>
	</g>
</g>
<g>
	<g>
		<path class="st0" d="M184,112.1C82.4,112.2,0.1,194.5,0,296.1c0,101.6,82.4,184,184,184s184-82.4,184-184S285.6,112.1,184,112.1z
			 M184,464.1c-92.8,0-168-75.2-168-168s75.2-168,168-168c92.7,0.1,167.9,75.3,168,168C352,388.8,276.8,464.1,184,464.1z"/>
	</g>
</g>
<g>
	<g>
		<path class="st0" d="M184,224.1c-39.8,0-72,32.2-72,72c0,39.8,32.2,72,72,72c39.8,0,72-32.2,72-72
			C256,256.3,223.7,224.1,184,224.1z M184,352.1c-30.9,0-56-25.1-56-56s25.1-56,56-56s56,25.1,56,56C240,327,214.9,352,184,352.1z"
			/>
	</g>
</g>
<g>
	<g>
		<rect x="120" y="160.1" class="st0" width="16" height="16"/>
	</g>
</g>
<g>
	<g>
		<rect x="152" y="192.1" class="st0" width="16" height="16"/>
	</g>
</g>
<g>
	<g>
		<rect x="224" y="184.1" class="st0" width="16" height="16"/>
	</g>
</g>
<g>
	<g>
		<rect x="288" y="200.1" class="st0" width="16" height="16"/>
	</g>
</g>
<g>
	<g>
		<rect x="272" y="256.1" class="st0" width="16" height="16"/>
	</g>
</g>
<g>
	<g>
		<rect x="312" y="304.1" class="st0" width="16" height="16"/>
	</g>
</g>
<g>
	<g>
		<rect x="256" y="352.1" class="st0" width="16" height="16"/>
	</g>
</g>
<g>
	<g>
		<rect x="168" y="424.1" class="st0" width="16" height="16"/>
	</g>
</g>
<g>
	<g>
		<rect x="72" y="288.1" class="st0" width="16" height="16"/>
	</g>
</g>
<g>
	<g>
		<rect x="232" y="416.1" class="st0" width="16" height="16"/>
	</g>
</g>
<g>
	<g>
		<rect x="56" y="224.1" class="st0" width="16" height="16"/>
	</g>
</g>
<g>
	<g>
		<rect x="56" y="360.1" class="st0" width="16" height="16"/>
	</g>
</g>
<g>
	<g>
		<rect x="120" y="392.1" class="st0" width="16" height="16"/>
	</g>
</g>
<g>
	<g>
		<path class="st0" d="M155.2,275.7l-13.4,8.7c14,21.5,32.3,39.9,53.9,53.9l8.7-13.4C184.8,312,168,295.3,155.2,275.7z"/>
	</g>
</g>
</svg>
