<?xml version="1.0" encoding="utf-8"?>
<!-- Generator: Adobe Illustrator 24.0.2, SVG Export Plug-In . SVG Version: 6.00 Build 0)  -->
<svg version="1.1" id="Capa_1" xmlns="http://www.w3.org/2000/svg" xmlns:xlink="http://www.w3.org/1999/xlink" x="0px" y="0px"
	 viewBox="0 0 512 512" style="enable-background:new 0 0 512 512;" xml:space="preserve">
<style type="text/css">
	.st0{fill:#FFDAB2;}
</style>
<g>
	<g>
		<path class="st0" d="M511.9,93.1c0-0.3,0-0.6,0-0.9c-0.1-0.3-0.2-0.6-0.4-0.9c-0.5-1.5-1.3-2.8-2.4-3.8c-0.4-0.3-0.9-0.6-1.3-0.9
			c-0.4-0.3-0.9-0.5-1.3-0.7c-0.6-0.2-1.2-0.3-1.8-0.4c-0.4-0.1-0.7-0.2-1.1-0.2c-0.1,0-0.2,0-0.3,0.1c-0.1,0-0.2,0-0.3,0L204.7,104
			c-1.1-26.1-18-48.9-42.6-57.6c1.2-5.7,3.6-11.1,7.1-15.8c9.1-9.8,22.3-14.8,35.6-13.6c4.7,0,8.5-3.8,8.5-8.5S209.5,0,204.8,0
			c-21.9,0-38.4,6.7-48.9,20c-5.2,6.7-8.8,14.6-10.5,22.9c-1.5-0.1-3-0.2-4.5-0.2C109.2,42.7,82.4,65.8,77.6,97
			c-8.4-7.5-19.4-11.7-30.7-11.7c-21,0.1-39.4,14.1-45,34.3c-1.2,1.5-1.9,3.3-1.9,5.2v285.9C0,466.6,49.8,512,110.9,512
			c0.5-0.1,1-0.2,1.5-0.3c1.5,0.4,3,0.4,4.5-0.1L506.1,388c0.1,0,0.2-0.1,0.3-0.2c0.6-0.2,1.1-0.5,1.6-0.9c1.9-1,3.2-2.8,3.6-4.9
			c0.2-0.6,0.3-1.2,0.4-1.7c0-0.1,0.1-0.2,0.1-0.4V93.9C512,93.6,511.9,93.4,511.9,93.1z M98.4,86.6c7.8-16.4,24.3-26.9,42.5-26.8
			c0.9,0,1.8,0.1,2.7,0.1c-0.1,6.3,0.5,12.6,1.8,18.8c0.9,3.9,4.3,6.6,8.3,6.6c0.6,0,1.3-0.1,1.9-0.2c4.6-1.1,7.5-5.6,6.4-10.2
			c0,0,0,0,0,0c-0.7-3.5-1.1-7.1-1.2-10.7c23.4,11,33.4,39,22.3,62.3s-39,33.4-62.3,22.3S87.3,109.9,98.4,86.6z M102.4,494.6
			c-47.8-3.9-85.3-40-85.3-83.9V180.2c19.3,28.8,50.8,47.2,85.3,49.9V494.6z M109.8,213.3c-49-0.6-90.2-38.7-92.5-84.6
			c0.1-0.8,0.2-1.5,0.4-2.3c2.8-13.9,15.1-23.9,29.3-23.9c12.8,0,24.2,8.2,28.3,20.4c0.8,2.5,2.8,4.4,5.3,5.2
			c11.8,33.3,48.3,50.7,81.6,39c20.6-7.3,36-24.6,41-45.8L437,106.6l-192.2,62.6c-0.1,0-0.2,0.1-0.3,0.2c-0.5,0.2-1.1,0.5-1.6,0.9
			c-1.9,1-3.2,2.8-3.6,4.9c-0.2,0.6-0.3,1.2-0.4,1.8c0,0.1-0.1,0.2-0.1,0.4v44.5c0,4.7-3.8,8.5-8.5,8.5s-8.5-3.8-8.5-8.5v-33.4
			c0-4.7-3.8-8.5-8.5-8.5c-4.7,0-8.5,3.8-8.5,8.5v212.6c0,4.7-3.8,8.5-8.5,8.5s-8.5-3.8-8.5-8.5V199.6c-0.2-0.9-0.4-1.8-0.4-2.6
			c0-0.1-0.1-0.2-0.2-0.3c-0.2-0.5-0.5-1.1-0.9-1.5c-0.4-0.9-1.2-1.7-2.1-2.2c-0.8-0.7-1.7-1.2-2.8-1.4c-0.6-0.2-1.3-0.3-1.9-0.4
			c-0.1,0-0.2-0.1-0.3-0.1c-0.4,0.1-0.9,0.1-1.3,0.3c-0.4,0-0.9,0.1-1.3,0.2L109.8,213.3z M119.5,363.7v-33.3l51.2-16.7V347
			L119.5,363.7z M170.7,364.9v33.3l-51.2,16.7v-33.3L170.7,364.9z M119.5,312.5v-84.5l51.2-16.7v84.5L119.5,312.5z M494.9,373.6
			L119.5,492.9v-60l55.3-18c7.6,11.9,23.4,15.4,35.3,7.8c7.4-4.7,11.8-12.8,11.8-21.6v-1.6l273.1-89.1V373.6z M494.9,292.5
			l-273.1,89.1v-33.2l273.1-89.1V292.5z M494.9,241.3l-273.1,89.1v-33.2L494.9,208V241.3z M494.9,190.1l-273.1,89.1v-33.2
			c2.7,1,5.6,1.5,8.5,1.6c14.1,0,25.6-11.5,25.6-25.6v-38.3l238.9-77.9L494.9,190.1L494.9,190.1z"/>
	</g>
</g>
</svg>
